<?xml version="1.0" encoding="utf-8"?>
<!-- Generator: Adobe Illustrator 28.0.0, SVG Export Plug-In . SVG Version: 6.00 Build 0)  -->
<svg version="1.1" id="Layer_1" xmlns="http://www.w3.org/2000/svg" xmlns:xlink="http://www.w3.org/1999/xlink" x="0px" y="0px"
	 viewBox="0 0 451.1 295.8" style="enable-background:new 0 0 451.1 295.8;" xml:space="preserve">
<style type="text/css">
	.st0{fill-rule:evenodd;clip-rule:evenodd;fill:#FBFCFF;}
	.st1{fill:#516092;}
	.st2{font-family:'ArialMT';}
	.st3{font-size:16.4015px;}
	.st4{fill:#ED7445;}
	.st5{fill:#ECEFF1;}
	.st6{opacity:0.5;fill:#D4E0FF;enable-background:new    ;}
	.st7{fill:#BCCCFD;}
	.st8{fill:#FFFFFF;}
	.st9{fill:#B0D8FF;}
	.st10{fill:#E3EBFF;}
</style>
<g id="BACKGROUND">
	<rect x="-25.4" y="-63.7" class="st0" width="500" height="500"/>
</g>
<g id="OBJECTS">
	<text transform="matrix(1 0 0 1 136.3959 285.7947)" class="st1 st2 st3">Página en construcción</text>
	<g>
		<g>
			<path class="st4" d="M340.1,288.3h-22.8c-0.8,0-1.4,0.6-1.4,1.4s0.6,1.4,1.4,1.4h22.8c0.8,0,1.4-0.6,1.4-1.4
				S340.8,288.3,340.1,288.3z"/>
			<path class="st4" d="M330.5,269c-0.1-0.3-0.4-0.5-0.7-0.5h-2.6c-0.3,0-0.6,0.2-0.7,0.5l-7.4,21h19L330.5,269z"/>
		</g>
		<polygon class="st5" points="325.1,272.9 324,276.2 333.1,276.2 331.9,272.9 		"/>
		<polygon class="st5" points="322.2,281.3 321,284.7 336.2,284.7 335,281.3 		"/>
	</g>
	<g>
		<g>
			<path class="st4" d="M131.9,288.3h-22.8c-0.8,0-1.4,0.6-1.4,1.4s0.6,1.4,1.4,1.4h22.8c0.8,0,1.4-0.6,1.4-1.4
				S132.6,288.3,131.9,288.3z"/>
			<path class="st4" d="M122.3,269c-0.1-0.3-0.4-0.5-0.7-0.5H119c-0.3,0-0.6,0.2-0.7,0.5l-7.4,21h19L122.3,269z"/>
		</g>
		<polygon class="st5" points="116.9,272.9 115.8,276.2 124.9,276.2 123.7,272.9 		"/>
		<polygon class="st5" points="114,281.3 112.8,284.7 128,284.7 126.8,281.3 		"/>
	</g>
	<g>
		<polygon class="st6" points="133.1,136.9 78.5,136.9 78.5,231.7 133.1,231.7 148,231.7 212.2,231.7 212.2,66.5 133.1,66.5 		"/>
		<polygon class="st6" points="302.2,142.7 302.2,7 223.1,7 223.1,231.7 299.1,231.7 302.2,231.7 360.3,231.7 360.3,142.7 		"/>
	</g>
	<g>
		<rect x="7.6" y="228.7" class="st1" width="434" height="2"/>
	</g>
	<g>
		<rect x="102.7" y="89.7" class="st7" width="190.7" height="149.9"/>
		<rect x="102.7" y="106.6" class="st8" width="190.7" height="132.9"/>
		<circle class="st8" cx="109.5" cy="97.8" r="2.8"/>
		<path class="st8" d="M124.1,97.8c0,1.5-1.2,2.8-2.8,2.8s-2.8-1.2-2.8-2.8s1.2-2.8,2.8-2.8C122.9,95,124.1,96.3,124.1,97.8z"/>
		<path class="st8" d="M135.9,97.8c0,1.5-1.2,2.8-2.8,2.8s-2.8-1.2-2.8-2.8s1.2-2.8,2.8-2.8S135.9,96.3,135.9,97.8z"/>
		<path class="st8" d="M227.8,102.8h-78.5c-2.6,0-4.8-2.1-4.8-4.8l0,0c0-2.6,2.1-4.8,4.8-4.8h78.5c2.6,0,4.8,2.1,4.8,4.8l0,0
			C232.5,100.7,230.4,102.8,227.8,102.8z"/>
		<path class="st8" d="M281.8,102.8h-37.2c-2.6,0-4.8-2.1-4.8-4.8l0,0c0-2.6,2.1-4.8,4.8-4.8h37.2c2.6,0,4.8,2.1,4.8,4.8l0,0
			C286.5,100.7,284.4,102.8,281.8,102.8z"/>
		<rect x="117.9" y="165.9" class="st7" width="67.8" height="38.3"/>
		<rect x="117.9" y="118.9" class="st7" width="67.8" height="38.3"/>
		<g>
			<rect x="118.5" y="213.8" class="st7" width="66.7" height="3"/>
		</g>
		<g>
			<rect x="118.5" y="223.8" class="st7" width="66.7" height="3"/>
		</g>
		<g>
			<rect x="209.2" y="213.8" class="st7" width="66.7" height="3"/>
		</g>
		<g>
			<rect x="209.2" y="223.8" class="st7" width="66.7" height="3"/>
		</g>
	</g>
	<g>
		<path class="st1" d="M294.4,240.6H101.7V88.7h192.7V240.6z M103.7,238.6h188.7V90.7H103.7V238.6z"/>
	</g>
	<g>
		<g>
			<path class="st1" d="M340.1,218h-19.6V53.3h19.6V218z M322.5,216h15.6V55.3h-15.6V216z"/>
		</g>
		<rect x="317.8" y="208.5" class="st7" width="24.9" height="17.9"/>
		<g>
			<path class="st1" d="M339.2,199h-17.3c-0.4,0-0.8-0.2-0.9-0.6c-0.2-0.4-0.1-0.8,0.2-1.1l16.7-18l1.5,1.4L324.1,197h15L339.2,199
				L339.2,199z"/>
		</g>
		<g>
			<path class="st1" d="M339.2,181h-17.3c-0.4,0-0.8-0.2-0.9-0.6c-0.2-0.4-0.1-0.8,0.2-1.1l16.7-18l1.5,1.4L324.1,179h15L339.2,181
				L339.2,181z"/>
		</g>
		<g>
			<path class="st1" d="M339.2,162.9h-17.3c-0.4,0-0.8-0.2-0.9-0.6c-0.2-0.4-0.1-0.8,0.2-1.1l16.7-18l1.5,1.4l-15.1,16.3h15
				L339.2,162.9L339.2,162.9z"/>
		</g>
		<g>
			<path class="st1" d="M339.2,144.9h-17.3c-0.4,0-0.8-0.2-0.9-0.6c-0.2-0.4-0.1-0.8,0.2-1.1l16.7-18l1.5,1.4l-15.1,16.3h15
				L339.2,144.9L339.2,144.9z"/>
		</g>
		<g>
			<path class="st1" d="M339.2,126.9h-17.3c-0.4,0-0.8-0.2-0.9-0.6c-0.2-0.4-0.1-0.8,0.2-1.1l16.7-18l1.5,1.4l-15.1,16.3h15
				L339.2,126.9L339.2,126.9z"/>
		</g>
		<g>
			<path class="st1" d="M339.2,108.8h-17.3c-0.4,0-0.8-0.2-0.9-0.6c-0.2-0.4-0.1-0.8,0.2-1.1l16.7-18l1.5,1.4l-15.1,16.3h15
				L339.2,108.8L339.2,108.8z"/>
		</g>
		<g>
			<path class="st1" d="M339.2,90.8h-17.3c-0.4,0-0.8-0.2-0.9-0.6c-0.2-0.4-0.1-0.8,0.2-1.1l16.7-18l1.5,1.4l-15.1,16.3h15
				L339.2,90.8L339.2,90.8z"/>
		</g>
		<g>
			<path class="st1" d="M339.2,72.8h-17.3c-0.4,0-0.8-0.2-0.9-0.6s-0.1-0.8,0.2-1.1l16.7-18l1.5,1.4l-15.1,16.3h15L339.2,72.8
				L339.2,72.8z"/>
		</g>
		<rect x="308.3" y="46.4" class="st4" width="31.7" height="26.7"/>
		<rect x="356" y="46.4" class="st4" width="31.7" height="15.4"/>
		<g>
			<path class="st1" d="M387.2,48.3H230.5c-0.6,0-1-0.4-1-1s0.4-1,1-1h156.7c0.6,0,1,0.4,1,1S387.7,48.3,387.2,48.3z"/>
		</g>
		<g>
			<rect x="237.8" y="52" class="st1" width="1" height="65"/>
		</g>
		<path class="st9" d="M331.2,46.7"/>
		<rect x="309.3" y="223.1" class="st1" width="41.9" height="7.9"/>
		<g>
			<path class="st1" d="M324.3,48.1c-0.1,0-0.3,0-0.4-0.1l-8.4-8.4H239l-7.9,7.9c-0.2,0.2-0.5,0.2-0.7,0s-0.2-0.5,0-0.7l8.1-8.1H316
				l8.6,8.6c0.2,0.2,0.2,0.5,0,0.7C324.5,48,324.4,48.1,324.3,48.1z"/>
		</g>
		<g>
			<path class="st1" d="M387.8,48.1c-0.2,0-0.4-0.1-0.4-0.3l-8.4-16h-20.3l-7.9,15.5c-0.1,0.2-0.4,0.3-0.7,0.2
				c-0.2-0.1-0.3-0.4-0.2-0.7l8.1-16h21.5l8.6,16.5c0.1,0.2,0,0.5-0.2,0.7C388,48,387.9,48.1,387.8,48.1z"/>
		</g>
		<path class="st7" d="M242,52c0,2-1.6,3.7-3.7,3.7s-3.7-1.6-3.7-3.7s1.6-3.7,3.7-3.7C240.3,48.3,242,50,242,52z"/>
		
			<rect x="195.5" y="119.5" transform="matrix(0.9958 -9.199625e-02 9.199625e-02 0.9958 -11.9767 22.4509)" class="st7" width="84.1" height="43.3"/>
		<g>
			<path class="st1" d="M260,39.6c-0.2,0-0.4-0.1-0.5-0.4c-0.1-0.3,0.1-0.5,0.3-0.6l74-22.6c0.1,0,0.2,0,0.3,0l35.1,14.8
				c0.3,0.1,0.4,0.4,0.3,0.7c-0.1,0.3-0.4,0.4-0.7,0.3L334,17l-73.9,22.5C260.1,39.6,260,39.6,260,39.6z"/>
		</g>
		<g>
			<path class="st1" d="M322.4,48.1c-0.1,0-0.2,0-0.4-0.1c-0.5-0.2-0.8-0.8-0.6-1.3l11.7-30.7c0.2-0.4,0.6-0.7,1-0.6
				c0.4,0,0.8,0.4,0.9,0.8l6,29.9c0.1,0.5-0.2,1.1-0.8,1.2c-0.5,0.1-1.1-0.2-1.2-0.8l-5.3-26.5l-10.4,27.4
				C323.1,47.9,322.8,48.1,322.4,48.1z"/>
		</g>
		<path class="st7" d="M336,16.5c0,1.1-0.9,2-2,2s-2-0.9-2-2s0.9-2,2-2S336,15.3,336,16.5z"/>
		<g>
			<path class="st1" d="M249.4,48.2c-0.1,0-0.2,0-0.3-0.1l-9.8-7.9v7.4c0,0.3-0.2,0.5-0.5,0.5s-0.5-0.2-0.5-0.5v-8.5
				c0-0.2,0.1-0.4,0.3-0.5c0.2-0.1,0.4-0.1,0.5,0.1l10.6,8.6c0.2,0.2,0.2,0.5,0.1,0.7C249.7,48.1,249.6,48.2,249.4,48.2z"/>
		</g>
		<g>
			<path class="st1" d="M258.9,48.2c-0.1,0-0.2,0-0.3-0.1l-9.8-7.9v7.4c0,0.3-0.2,0.5-0.5,0.5s-0.5-0.2-0.5-0.5v-8.5
				c0-0.2,0.1-0.4,0.3-0.5c0.2-0.1,0.4-0.1,0.5,0.1l10.6,8.6c0.2,0.2,0.2,0.5,0.1,0.7C259.2,48.1,259.1,48.2,258.9,48.2z"/>
		</g>
		<g>
			<path class="st1" d="M268.4,48.2c-0.1,0-0.2,0-0.3-0.1l-9.8-7.9v7.4c0,0.3-0.2,0.5-0.5,0.5s-0.5-0.2-0.5-0.5v-8.5
				c0-0.2,0.1-0.4,0.3-0.5c0.2-0.1,0.4-0.1,0.5,0.1l10.6,8.6c0.2,0.2,0.2,0.5,0.1,0.7C268.7,48.1,268.6,48.2,268.4,48.2z"/>
		</g>
		<g>
			<path class="st1" d="M277.9,48.2c-0.1,0-0.2,0-0.3-0.1l-9.8-7.9v7.4c0,0.3-0.2,0.5-0.5,0.5s-0.5-0.2-0.5-0.5v-8.5
				c0-0.2,0.1-0.4,0.3-0.5c0.2-0.1,0.4-0.1,0.5,0.1l10.6,8.6c0.2,0.2,0.2,0.5,0.1,0.7C278.2,48.1,278.1,48.2,277.9,48.2z"/>
		</g>
		<g>
			<path class="st1" d="M287.4,48.2c-0.1,0-0.2,0-0.3-0.1l-9.8-7.9v7.4c0,0.3-0.2,0.5-0.5,0.5s-0.5-0.2-0.5-0.5v-8.5
				c0-0.2,0.1-0.4,0.3-0.5c0.2-0.1,0.4-0.1,0.5,0.1l10.6,8.6c0.2,0.2,0.2,0.5,0.1,0.7C287.7,48.1,287.6,48.2,287.4,48.2z"/>
		</g>
		<g>
			<path class="st1" d="M296.9,48.2c-0.1,0-0.2,0-0.3-0.1l-9.8-7.9v7.4c0,0.3-0.2,0.5-0.5,0.5s-0.5-0.2-0.5-0.5v-8.5
				c0-0.2,0.1-0.4,0.3-0.5c0.2-0.1,0.4-0.1,0.5,0.1l10.6,8.6c0.2,0.2,0.2,0.5,0.1,0.7C297.2,48.1,297,48.2,296.9,48.2z"/>
		</g>
		<g>
			<path class="st1" d="M306.4,48.2c-0.1,0-0.2,0-0.3-0.1l-9.8-7.9v7.4c0,0.3-0.2,0.5-0.5,0.5s-0.5-0.2-0.5-0.5v-8.5
				c0-0.2,0.1-0.4,0.3-0.5c0.2-0.1,0.4-0.1,0.5,0.1l10.6,8.6c0.2,0.2,0.2,0.5,0.1,0.7C306.7,48.1,306.5,48.2,306.4,48.2z"/>
		</g>
		<g>
			<path class="st1" d="M315.9,48.2c-0.1,0-0.2,0-0.3-0.1l-9.8-7.9v7.4c0,0.3-0.2,0.5-0.5,0.5s-0.5-0.2-0.5-0.5v-8.5
				c0-0.2,0.1-0.4,0.3-0.5c0.2-0.1,0.4-0.1,0.5,0.1l10.6,8.6c0.2,0.2,0.2,0.5,0.1,0.7C316.2,48.1,316,48.2,315.9,48.2z"/>
		</g>
		<g>
			<path class="st1" d="M372,48.2c-0.1,0-0.3-0.1-0.4-0.2l-12.8-15.1v14.6c0,0.3-0.2,0.5-0.5,0.5s-0.5-0.2-0.5-0.5v-16
				c0-0.2,0.1-0.4,0.3-0.5c0.2-0.1,0.4,0,0.6,0.1l13.6,16.1c0.2,0.2,0.2,0.5-0.1,0.7C372.3,48.1,372.1,48.2,372,48.2z"/>
		</g>
		<g>
			<path class="st1" d="M381.8,48.2c-0.2,0-0.3-0.1-0.4-0.2l-9.7-14.7v14.3c0,0.3-0.2,0.5-0.5,0.5s-0.5-0.2-0.5-0.5v-16
				c0-0.2,0.1-0.4,0.4-0.5c0.2-0.1,0.4,0,0.6,0.2l10.6,16.1c0.2,0.2,0.1,0.5-0.1,0.7C382,48.1,381.9,48.2,381.8,48.2z"/>
		</g>
		<path class="st4" d="M241.4,118.3c0,1.7-1.4,3.1-3.1,3.1c-1.7,0-3.1-1.4-3.1-3.1c0-1.7,1.4-3.1,3.1-3.1
			C240,115.2,241.4,116.6,241.4,118.3z"/>
	</g>
	<g>
		<g>
			<rect x="67.7" y="181.2" class="st1" width="2" height="48"/>
		</g>
		<g>
			<rect x="29.7" y="181.2" class="st1" width="2" height="48"/>
		</g>
		<rect x="24.7" y="185.7" class="st10" width="50.2" height="18.5"/>
		<polygon class="st4" points="74.9,204.2 74.9,186.7 65.7,204.2 		"/>
		<polygon class="st4" points="43.2,204.2 53.9,204.2 63.7,185.7 52.9,185.7 		"/>
		<polygon class="st4" points="30.4,185.7 24.7,196.6 24.7,204.2 31.4,204.2 41.2,185.7 		"/>
		<g>
			<rect x="22.2" y="215.2" class="st1" width="55" height="2"/>
		</g>
	</g>
	<g>
		<g>
			<rect x="415.7" y="181.2" class="st1" width="2" height="48"/>
		</g>
		<g>
			<rect x="377.7" y="181.2" class="st1" width="2" height="48"/>
		</g>
		<rect x="372.7" y="185.7" class="st10" width="50.2" height="18.5"/>
		<polygon class="st4" points="422.9,204.2 422.9,186.7 413.7,204.2 		"/>
		<polygon class="st4" points="391.2,204.2 401.9,204.2 411.7,185.7 400.9,185.7 		"/>
		<polygon class="st4" points="378.4,185.7 372.7,196.6 372.7,204.2 379.4,204.2 389.2,185.7 		"/>
		<g>
			<rect x="370.2" y="215.2" class="st1" width="55" height="2"/>
		</g>
	</g>
	<g>
		<g>
			<path class="st4" d="M99.1,243H76.3c-0.8,0-1.4,0.6-1.4,1.4s0.6,1.4,1.4,1.4h22.8c0.8,0,1.4-0.6,1.4-1.4S99.8,243,99.1,243z"/>
			<path class="st4" d="M89.5,223.6c-0.1-0.3-0.4-0.5-0.7-0.5h-2.6c-0.3,0-0.6,0.2-0.7,0.5l-7.4,21h19L89.5,223.6z"/>
		</g>
		<polygon class="st5" points="84.1,227.5 83,230.8 92.1,230.8 90.9,227.5 		"/>
		<polygon class="st5" points="81.2,236 80,239.3 95.2,239.3 94,236 		"/>
	</g>
	<path class="st6" d="M95.7,65.9c-1.7,0-3.2,0.5-4.5,1.4v-2.2c0-6.4-5.1-11.5-11.5-11.5s-11.5,5.1-11.5,11.5v4.3c-1-1-2.4-1.6-4-1.6
		c-3.2,0-5.8,2.6-5.8,5.8h45.1C103.4,69.4,99.9,65.9,95.7,65.9z"/>
	<path class="st6" d="M188.5,34.6c-1.2,0-2.3,0.4-3.3,1V34c0-4.6-3.7-8.4-8.4-8.4s-8.4,3.7-8.4,8.4v3.2c-0.8-0.7-1.8-1.2-2.9-1.2
		c-2.3,0-4.2,1.9-4.2,4.2h32.8C194.2,37.1,191.6,34.6,188.5,34.6z"/>
</g>
</svg>
